<?xml version="1.0" encoding="UTF-8"?>
<svg id="Layer_2" data-name="Layer 2" xmlns="http://www.w3.org/2000/svg" viewBox="0 0 514.37 679.48">
  <defs>
    <style>
      .cls-1 {
        fill: #669b2e;
      }

      .cls-2 {
        fill: #fefefe;
      }

      .cls-3 {
        fill: #e5f8d3;
      }

      .cls-4 {
        fill: #0d130c;
      }

      .cls-5 {
        fill: #4e8025;
      }
    </style>
  </defs>
  <g id="picklerick">
    <g>
      <path class="cls-2" d="m0,594.69c.37,9.43.93,18.46,3.85,27.77,5.13,16.39,16.53,26.78,29.96,35.16,9.11,5.68,19.4,10.05,29.72,13.08,14.09,4.15,28.17,9.48,43.28,8.69,9.17-.48,18.42-.83,27.44-2.41,10.71-1.87,21.24-4.85,31.77-7.61,25.41-6.66,47.63-19.08,66.2-37.7,21.4-21.46,42.89-42.84,63.73-64.84,14.87-15.7,30.49-31.14,42.7-48.83,28.67-41.54,55.2-84.57,77.18-130.1,17.66-36.6,34.14-73.77,51.05-110.73,14.22-31.09,27.83-62.46,36.82-95.54,4.2-15.46,8.6-31.14,10.12-46.99,1.39-14.5-.08-29.48-1.92-44.04-1.85-14.62-8.65-27.76-16.81-40.01-8.76-13.15-21.01-22.27-34.26-30.62-10.48-6.6-21.53-11.57-32.89-16.16-7.57-3.06-15.43-4.78-23.41-3.3-8.7,1.61-17.53,3.49-25.7,6.76-8.83,3.53-18.24,7.39-25.13,13.62-13.5,12.19-27.61,24.13-37.31,39.97-2.76,4.51-5.19,9.23-7.85,13.81-3.87,6.67-8,13.2-11.68,19.97-5.46,10.04-10.25,20.46-16.01,30.32-11.09,18.99-22.73,37.65-33.97,56.56-4.52,7.6-8.52,15.5-12.88,23.21-3.46,6.13-7.33,12.04-10.62,18.25-9.68,18.27-18.4,37.09-28.9,54.86-13.42,22.72-27.82,44.89-42.57,66.78-9.64,14.3-21.36,27.21-30.82,41.61-7.98,12.15-17.77,22.3-28.15,32.17-10.14,9.63-18.87,20.53-27.13,31.78-8.57,11.67-17.33,23.24-25.32,35.3-8.56,12.93-17.07,25.99-24.26,39.7-11.35,21.64-15.07,45.34-16.23,69.49Z"/>
      <path class="cls-4" d="m0,594.69c1.15-24.15,4.87-47.85,16.23-69.49,7.19-13.71,15.7-26.77,24.26-39.7,7.99-12.07,16.75-23.63,25.32-35.3,8.26-11.25,16.99-22.14,27.13-31.78,10.38-9.86,20.17-20.02,28.15-32.17,9.46-14.4,21.18-27.31,30.82-41.61,14.75-21.89,29.14-44.07,42.57-66.78,10.5-17.77,19.23-36.59,28.9-54.86,3.29-6.21,7.15-12.12,10.62-18.25,4.35-7.7,8.36-15.6,12.88-23.21,11.24-18.9,22.89-37.57,33.97-56.56,5.76-9.86,10.55-20.28,16.01-30.32,3.68-6.77,7.81-13.3,11.68-19.97,2.66-4.58,5.09-9.3,7.85-13.81,9.7-15.84,23.81-27.78,37.31-39.97,6.89-6.23,16.3-10.09,25.13-13.62,8.17-3.27,17-5.14,25.7-6.76,7.98-1.48,15.84.24,23.41,3.3,11.36,4.59,22.42,9.56,32.89,16.16,13.25,8.35,25.5,17.47,34.26,30.62,8.16,12.24,14.97,25.38,16.81,40.01,1.84,14.56,3.32,29.54,1.92,44.04-1.52,15.85-5.92,31.52-10.12,46.99-8.99,33.07-22.6,64.45-36.82,95.54-16.91,36.96-33.39,74.13-51.05,110.73-21.98,45.54-48.51,88.57-77.18,130.1-12.2,17.68-27.82,33.13-42.7,48.83-20.84,21.99-42.33,43.37-63.73,64.84-18.56,18.62-40.79,31.04-66.2,37.7-10.54,2.76-21.07,5.74-31.77,7.61-9.01,1.58-18.27,1.93-27.44,2.41-15.11.8-29.19-4.54-43.28-8.69-10.33-3.04-20.61-7.4-29.72-13.08-13.43-8.38-24.83-18.77-29.96-35.16-2.92-9.31-3.48-18.34-3.85-27.77ZM241.21,204.18c-1.72,2.98-3.44,5.96-5.16,8.95-4.52,7.93-9.33,15.71-13.52,23.8-20.18,38.9-41.95,76.85-67.99,112.15-16.08,21.81-31.76,44.18-50.15,63.95-23.34,25.08-44.61,51.55-64.08,79.6-23.5,33.86-37.31,70.65-34.15,112.68,1.44,19.07,8.47,35.05,24.98,45.35,28.19,17.59,59.02,25.35,92.3,22.78,29.84-2.3,57.31-12.43,82.46-27.79,13.46-8.22,25.52-19.31,36.71-30.59,24.02-24.22,47.52-48.99,70.32-74.36,13.18-14.66,25.23-30.48,36.61-46.6,9.47-13.42,17.45-27.93,25.7-42.19,13.42-23.18,27.13-46.23,39.56-69.95,8.55-16.33,14.66-33.91,22.68-50.54,21.33-44.24,41.61-88.92,57.6-135.4,10.53-30.62,18.98-61.48,14.53-94.66-2.82-21.05-8.89-40.07-23.36-56.03-16.94-18.68-38.41-29.82-61.67-38.33-8.54-3.12-16.75-3.88-25.25-.47-1.38.55-2.86.9-4.33,1.15-18.81,3.19-33.71,13.66-47.56,25.87-14.15,12.49-24.58,27.93-33.94,44.15-18.63,32.28-37.28,64.54-55.83,96.86-5.62,9.79-10.97,19.74-16.44,29.61Z"/>
      <path class="cls-5" d="m241.21,204.18c5.47-9.87,10.82-19.82,16.44-29.61,18.56-32.32,37.21-64.58,55.83-96.86,9.36-16.22,19.79-31.66,33.94-44.15,13.85-12.22,28.74-22.68,47.56-25.88,1.47-.25,2.96-.6,4.33-1.15,8.5-3.41,16.71-2.65,25.25.47,23.26,8.51,44.73,19.65,61.67,38.33,14.47,15.96,20.54,34.98,23.36,56.03,4.45,33.18-3.99,64.04-14.53,94.66-15.99,46.48-36.27,91.16-57.6,135.4-8.02,16.63-14.13,34.21-22.68,50.54-12.42,23.72-26.14,46.77-39.56,69.95-8.25,14.25-16.23,28.76-25.7,42.19-11.38,16.13-23.42,31.94-36.61,46.6-22.8,25.37-46.31,50.14-70.32,74.36-11.19,11.28-23.24,22.37-36.71,30.59-25.15,15.35-52.62,25.49-82.46,27.79-33.29,2.56-64.11-5.2-92.3-22.78-16.5-10.3-23.54-26.28-24.98-45.35-3.17-42.03,10.65-78.82,34.15-112.68,19.47-28.05,40.74-54.52,64.08-79.6,18.39-19.77,34.07-42.14,50.16-63.95,26.04-35.3,47.81-73.25,67.99-112.15,4.2-8.09,9-15.87,13.53-23.8.75,2.28,1.21,4.71,2.3,6.81,1.52,2.93,3.51,5.62,5.3,8.41.47-.33.95-.65,1.42-.98-.53-.94-1.05-1.88-1.59-2.82-6.01-10.62-4.55-15.24,6.6-20.68,1.48-.72,3.1-1.17,4.57-1.91.85-.43,1.53-1.19,2.29-1.79-.21-.41-.41-.83-.62-1.24-5.04,1.75-10.09,3.51-15.13,5.26Zm210.01-122.92v.08c-.02-1.99.46-4.14-.14-5.94-3.17-9.51-6.3-19.06-10.09-28.34-2.58-6.31-7.38-11.31-14.35-12.41-11.76-1.85-23.05.13-33.32,6.54-6,.56-12.36.07-17.91,1.94-8.32,2.81-11.66,3.3-8.88,14.49-1.34,1.97-2.56,4.04-4.05,5.9-2.7,3.4-5.56,6.67-8.36,10-3.23.57-6.73.52-9.63,1.82-16.77,7.52-25.5,21.04-21.33,41.92-7.62,6.72-15.23,13.44-22.85,20.17-18.27,9.06-21.15,23.92-18.07,39.8-1.31,8.6-2.37,17.26-3.98,25.8-2.57,13.63-5.31,27.24-8.36,40.78-2.98,13.21-9.11,25.12-15.65,36.89-2.7,4.86-4.98,10.38-5.66,15.83-.74,5.93-3.08,10.73-6.37,15.27-6.21,8.58-12.66,17-18.95,25.53-5.39,7.31-10.21,15.11-16.16,21.92-10.95,12.53-21.19,25.42-28.27,40.61-4.4,9.43-8.62,19-13.82,27.98-4.7,8.11-10.65,15.5-15.99,23.25-5.76,8.36-6.15,8.52-15.24,4.88-5.03-2.02-12.81-.34-16.19,3.48-2.8,3.17-3.32,10.9-.26,16.44,0-3.25-.11-5.17.02-7.07.49-7.13,4.35-11.54,11.19-11.35,2.83.08,6.14,2.22,8.12,4.41.78.86-.87,5-2.44,6.7-4.17,4.49-9.29,8.12-13.32,12.71-9.73,11.08-19.13,22.44-28.51,33.81-10.89,13.2-18.23,28.39-24.49,44.18-2.44,6.16-.71,16.7,4.98,19.53,4.71,2.34,10.8,3.21,16.12,2.77,12.64-1.04,22.6-8.13,31.24-16.9,5.93-6.02,11.35-12.55,16.98-18.87,16.33-18.34,32.77-36.58,48.9-55.1,3.94-4.53,6.67-10.08,10.25-14.96,2.97-4.05,5.75-8.6,9.67-11.51,9.96-7.41,21.31-13.2,28.4-23.82,5.31-7.96,10.59-16.13,14.38-24.86,4.71-10.86,6.62-23.05,12.03-33.48,6.35-12.26,14.09-24.19,23.2-34.52,8.11-9.2,18.96-15.97,28.5-23.94,7.46-6.24,16.02-11.7,21.86-19.24,10.73-13.86,19.74-29.05,29.64-43.57,3.01-4.42,6.59-8.44,9.91-12.65,4.82.68,9.68,2.1,14.47,1.91,18.56-.72,35.08-18.23,33.48-36.35-.63-7.18-4.37-14.07-6.7-21.1,1.03-3.57,2.06-7.14,3.09-10.71,1.75-1.42,3.49-2.84,5.24-4.26-.21-.34-.42-.68-.63-1.02-1.19.21-2.37.43-3.56.64.32-2.49.64-4.99.96-7.48,19.86-5.36,29.78-26.96,24.06-44.59,2.3-7.59,4.61-15.18,6.91-22.78.85-1.53,2.51-3.12,2.4-4.57-.41-5.26-1.42-10.48-2.2-15.72.1-.11.31-.3.29-.32-.16-.21-.36-.39-.54-.58Zm-75.43-40.68c.7-.16,2.12-.37,3.47-.82,10.29-3.49,20.23-7.72,28.84-14.51,1.01-.8,2.13-2.44,1.95-3.48-.17-1.05-1.8-2.42-2.97-2.63-6.3-1.14-12.65-2.5-19.02-2.67-3.21-.09-7.2,1.4-9.58,3.56-3.66,3.32-5.98,8.07-9.35,11.78-3.61,3.96-3.53,5.85,1.47,7.92,1.33.55,2.9.51,5.18.87Zm-142.19,520.38c1.47,7.41,2.09,14.74-4.48,19.77-6.64,5.08-13.7,2.44-20.55-.64,3.27,5.4,8.54,6.27,13.91,6.05,6.34-.26,10.99-3.74,13.49-9.5,2.34-5.41,1.92-10.77-2.37-15.67Zm-170.83-59.73c-3.8-6.36-12.16-9.66-7.57-18.17,3.81-7.08,10.83-7.49,18.62-8.42-10.97-3.8-18.32.98-21.04,7.12-3.53,7.95.17,15.21,10,19.47Zm298.59-109.8c5.22,5.03,11.3,4.89,16.11.16,5.67-5.56,6.87-14.13,2.79-18.51-.94,5.07-.72,10.95-3.17,15.34-3.11,5.58-9.69,3.95-15.74,3.01Zm-200.6-23.09c-.8-4.2-2.95-8.39-1.78-11.2,1.29-3.1,5.62-4.94,8.73-7.4-6.11-.28-10.06,2.11-11.65,6.96-1.43,4.36.1,8.49,4.7,11.63Z"/>
      <path class="cls-1" d="m241.21,204.18c5.04-1.75,10.09-3.51,15.13-5.26.21.41.41.83.62,1.24-.76.61-1.44,1.37-2.29,1.79-1.47.74-3.09,1.19-4.57,1.91-11.15,5.44-12.61,10.07-6.6,20.68.53.94,1.06,1.88,1.59,2.82-.47.33-.95.65-1.42.98-1.79-2.79-3.78-5.48-5.3-8.41-1.09-2.1-1.56-4.53-2.3-6.81,1.72-2.98,3.44-5.96,5.16-8.95Z"/>
      <path class="cls-1" d="m420.31,169.8c-.32,2.49-.64,4.99-.96,7.48-10.55,6-19.42,1.46-28.02-4.53-2.43-1.7-4.73-3.59-8.16-6.21,5.1,12.18,22.02,18.98,35.13,15.38-1.03,3.57-2.06,7.14-3.09,10.71-1.42-.88-2.84-1.75-4.91-3.02,1.36,3.41,2.38,5.97,3.4,8.52-1.2,1.09-2.4,2.18-3.6,3.27-11.81-12.77-26.85-19.43-43.8-19.98-13.63-.45-23.34-5.92-31.24-16.34-3.21-4.23-6.99-8.03-10.61-11.93-7.1-7.65-14.15-9.45-22.25-5.83-8.35,3.74-13.46,12.7-12.44,21.96,1.34,12.2,6.16,22.98,13.08,33.01,5.77,8.37,14.39,13.16,22.29,18.92,14.2,10.36,29.64,17.72,47.21,20.1,1.38.48,2.75.96,3.75,1.31-.25,1.32-.48,2.5-.7,3.67v-.03c-.36.3-.72.6-1.08.9-.12.34-.23.67-.35,1-3.32,4.21-6.9,8.23-9.91,12.65-9.9,14.52-18.91,29.71-29.64,43.57-5.84,7.54-14.4,13-21.86,19.24-9.53,7.97-20.39,14.74-28.5,23.94-9.11,10.34-16.85,22.26-23.2,34.52-5.4,10.43-7.32,22.61-12.03,33.48-3.79,8.73-9.07,16.9-14.38,24.86-7.09,10.62-18.45,16.41-28.4,23.82-3.92,2.92-6.7,7.46-9.67,11.51-3.57,4.88-6.3,10.43-10.25,14.96-16.12,18.52-32.57,36.76-48.9,55.1-5.63,6.32-11.04,12.85-16.97,18.87-8.65,8.77-18.6,15.86-31.24,16.9-5.32.44-11.41-.43-16.12-2.77-5.69-2.83-7.42-13.37-4.98-19.53,6.26-15.79,13.61-30.98,24.49-44.18,9.38-11.37,18.78-22.74,28.51-33.81,4.03-4.59,9.16-8.22,13.32-12.71,1.57-1.69,3.22-5.83,2.44-6.7-1.99-2.2-5.29-4.33-8.12-4.41-6.84-.19-10.69,4.22-11.18,11.35-.13,1.9-.02,3.82-.02,7.07-3.05-5.54-2.54-13.27.26-16.44,3.38-3.83,11.16-5.5,16.19-3.48,9.09,3.64,9.48,3.48,15.24-4.88,5.34-7.75,11.29-15.13,15.99-23.25,5.2-8.98,9.43-18.55,13.82-27.98,7.08-15.2,17.32-28.08,28.27-40.61,5.95-6.81,10.77-14.61,16.16-21.92,6.29-8.53,12.74-16.94,18.95-25.53,3.29-4.55,5.63-9.34,6.37-15.27.68-5.45,2.96-10.97,5.66-15.83,6.54-11.77,12.68-23.69,15.65-36.89,3.05-13.53,5.78-27.14,8.36-40.78,1.61-8.55,2.67-17.2,3.98-25.8,7.5,20.86,19.95,37.39,29.79,37.97-3.32-3.88-7.48-6.95-11-10.62-9.99-10.44-16.33-22.77-16.57-37.43-.17-10.49,4.25-19.36,13.51-24.64,8.7-4.97,17.35-2.86,25.39,2.51,2.01,1.34,4.19,2.43,6.3,3.64.26-.3.53-.61.79-.92-1.76-1.8-3.33-3.84-5.3-5.35-7.43-5.69-16.09-5.62-24.84-4.96,7.62-6.72,15.23-13.44,22.85-20.17,5.31,16.14,17.9,22.35,34.02,24.1-1.81,2.16-3.51,3.64-4.5,5.49-2.87,5.35-6.29,10.61-7.94,16.36-1.7,5.92,3.3,9.59,8.96,7.08,3.91-1.74,7.64-4.03,11.17-6.47,2.67-1.85,4.89-4.33,7.32-6.53-.38-.48-.76-.96-1.13-1.43-1.45.87-2.95,1.67-4.33,2.64-3.27,2.29-6.28,5.02-9.77,6.88-2.42,1.29-5.45,1.44-8.21,2.1.12-3.13.21-6.26.38-9.39.02-.45.49-.85.69-1.31,5.3-12.24,16.42-17.96,26.06-23.78,1.81,6.15,2.42,13.14,5.72,18.46,8.73,14.07,22,20.2,38.68,18.34Zm-98.4-49.04c-3.01,6.83-.7,13.24,5.59,19.25,6,5.74,12.55,8.12,18.21,5.27-13.84-2.6-22.06-9.93-23.8-24.52Z"/>
      <path class="cls-1" d="m451.28,102.44c-2.3,7.59-4.61,15.18-6.91,22.78-4.79-10.23-12.16-17.15-23.57-19.65-10.86-2.38-21.3-2.35-31.65,3.99.4-10.33-2.85-18.11-10.23-24.16-7.32-6-15.39-10.28-24.78-11.87,2.79-3.33,5.65-6.6,8.36-10,1.48-1.86,2.7-3.93,4.04-5.89,3.62.07,7.25.26,10.87.19,11.19-.22,22.21.39,32.79,4.66,13.97,5.64,23.01,15.88,28.6,29.57,2.3,5.64,5.43,10.4,12.48,10.39Z"/>
      <path class="cls-4" d="m354.14,73.53c9.39,1.59,17.45,5.87,24.78,11.87,7.39,6.06,10.63,13.83,10.23,24.16,10.35-6.34,20.79-6.37,31.65-3.99,11.41,2.5,18.78,9.42,23.57,19.65,5.72,17.63-4.2,39.23-24.06,44.59-16.68,1.86-29.95-4.28-38.68-18.35-3.3-5.32-3.91-12.31-5.72-18.46-9.64,5.82-20.76,11.54-26.06,23.78-.2.46-.67.86-.69,1.31-.17,3.13-.26,6.26-.38,9.39,2.76-.66,5.79-.81,8.21-2.1,3.49-1.86,6.5-4.59,9.77-6.88,1.38-.97,2.88-1.76,4.33-2.64.38.48.76.96,1.13,1.43-2.42,2.2-4.65,4.68-7.32,6.53-3.53,2.45-7.25,4.73-11.17,6.47-5.66,2.51-10.66-1.15-8.96-7.08,1.64-5.74,5.06-11.01,7.94-16.36.99-1.85,2.69-3.33,4.5-5.49-16.12-1.74-28.71-7.95-34.02-24.1-4.18-20.89,4.56-34.41,21.32-41.92,2.9-1.3,6.41-1.25,9.63-1.82Zm53.96,33.35c-15.58-.14-27.71,12.75-27.88,29.61-.16,15.7,15.88,30.58,33.19,30.8,15.5.19,29.51-14.49,29.57-30.99.06-17.69-13.62-29.23-34.88-29.42Zm-82.85-.14c-.04,18.54,12.27,30.87,30.88,30.93,14.26.05,30.18-16.64,30.14-31.57-.04-13.61-17.74-29.31-33.36-29.54-12.1-.18-28.65,14.68-27.65,30.19Z"/>
      <path class="cls-1" d="m393.33,41.2c10.27-6.42,21.56-8.39,33.32-6.54,6.97,1.09,11.78,6.09,14.35,12.41,3.79,9.28,6.91,18.83,10.09,28.34.6,1.8.12,3.95.14,5.94-7.43-12.62-16.63-23.79-29.99-30.19-8.86-4.24-18.58-6.7-27.91-9.95Z"/>
      <path class="cls-4" d="m393.33,41.2c9.33,3.26,19.05,5.71,27.91,9.95,13.36,6.4,22.56,17.57,29.99,30.19,0,0,0-.08,0-.08,0,.32.09.62.25.89.78,5.24,1.79,10.45,2.2,15.72.11,1.45-1.55,3.05-2.4,4.57-7.05.01-10.18-4.74-12.48-10.39-5.59-13.69-14.63-23.93-28.6-29.57-10.58-4.27-21.6-4.88-32.79-4.66-3.62.07-7.25-.11-10.87-.19-2.78-11.19.55-11.68,8.88-14.49,5.55-1.88,11.91-1.38,17.91-1.94Zm-24.03,14.06c2.81-.23,5.44-.57,8.08-.64,30.92-.87,52.93,8.94,64.7,37.22.7,1.67,1.47,3.48,2.7,4.72,1.16,1.17,2.99,1.67,4.53,2.46.62-1.57,2.08-3.39,1.7-4.67-1.71-5.83-2.97-12.13-6.16-17.13-12.64-19.77-31.5-29.96-54.45-32.97-6.59-.86-12.92.42-18.74,3.83-2.62,1.54-3.92,3.5-2.37,7.18Z"/>
      <path class="cls-1" d="m375.79,40.58c-2.28-.36-3.85-.31-5.18-.87-5-2.07-5.08-3.96-1.47-7.92,3.38-3.7,5.69-8.45,9.35-11.78,2.38-2.16,6.36-3.64,9.58-3.56,6.36.17,12.71,1.53,19.01,2.67,1.17.21,2.8,1.59,2.97,2.63.17,1.04-.94,2.68-1.95,3.48-8.61,6.79-18.55,11.02-28.84,14.51-1.34.46-2.77.66-3.46.82Z"/>
      <path class="cls-4" d="m300.33,137.44c8.75-.66,17.41-.73,24.84,4.96,1.97,1.51,3.54,3.55,5.3,5.35-.26.3-.53.61-.79.92-2.1-1.21-4.29-2.29-6.3-3.64-8.04-5.37-16.69-7.48-25.39-2.51-9.26,5.29-13.67,14.15-13.51,24.64.23,14.65,6.58,26.99,16.57,37.43,3.52,3.68,7.68,6.74,11,10.62-9.84-.58-22.29-17.11-29.79-37.97-3.08-15.88-.2-30.74,18.07-39.8Z"/>
      <path class="cls-4" d="m413.7,198.14c-1.02-2.56-2.04-5.11-3.4-8.52,2.07,1.27,3.49,2.15,4.91,3.02,2.33,7.03,6.07,13.93,6.7,21.1,1.6,18.12-14.92,35.62-33.48,36.35-4.79.19-9.64-1.23-14.47-1.91.11-.34.23-.67.35-1,.36-.3.73-.6,1.09-.9,0,0,0,.03,0,.03,11.73,2.4,22.37.07,31.99-7.15,12.51-9.39,15.5-28.46,6.32-41.02Z"/>
      <path class="cls-4" d="m418.29,181.93c-13.11,3.6-30.03-3.21-35.13-15.38,3.43,2.62,5.73,4.51,8.16,6.21,8.6,5.99,17.47,10.53,28.02,4.53,1.19-.21,2.37-.42,3.56-.64.21.34.42.68.63,1.02-1.75,1.42-3.49,2.84-5.24,4.26Z"/>
      <path class="cls-1" d="m233.6,560.97c4.29,4.9,4.71,10.27,2.37,15.67-2.5,5.77-7.15,9.25-13.49,9.5-5.38.22-10.64-.64-13.91-6.05,6.85,3.08,13.91,5.72,20.55.64,6.57-5.03,5.95-12.36,4.49-19.77Z"/>
      <path class="cls-1" d="m62.76,501.23c-9.83-4.26-13.53-11.52-10-19.48,2.72-6.14,10.07-10.92,21.04-7.12-7.79.93-14.8,1.34-18.62,8.42-4.58,8.51,3.77,11.82,7.57,18.18Z"/>
      <path class="cls-1" d="m361.36,391.44c6.05.95,12.62,2.57,15.74-3.01,2.45-4.39,2.23-10.27,3.17-15.34,4.08,4.38,2.88,12.94-2.79,18.51-4.82,4.73-10.89,4.87-16.11-.16Z"/>
      <path class="cls-1" d="m160.76,368.35c-4.61-3.14-6.14-7.28-4.7-11.64,1.59-4.85,5.54-7.24,11.65-6.96-3.1,2.46-7.43,4.3-8.73,7.4-1.17,2.81.98,7,1.78,11.2Z"/>
      <path class="cls-1" d="m451.48,82.15c-.16-.28-.25-.57-.25-.89.19.19.38.37.55.57.01.02-.19.21-.29.32Z"/>
      <path class="cls-4" d="m372.33,241.33c-17.58-2.38-33.01-9.74-47.21-20.1-7.9-5.76-16.52-10.56-22.29-18.92-6.92-10.04-11.74-20.82-13.08-33.01-1.02-9.25,4.09-18.21,12.44-21.96,8.1-3.63,15.15-1.82,22.25,5.83,3.62,3.9,7.4,7.7,10.61,11.93,7.9,10.41,17.61,15.89,31.24,16.34,16.95.55,31.99,7.21,43.8,19.98,10.33,16.42-.38,37.6-19.46,39.25-6.07.52-12.2.46-18.3.67Zm-14.69-36.74c-.51.6-1.02,1.19-1.52,1.79,1.93,1.28,3.75,2.77,5.8,3.81,9.62,4.87,13.59,13.17,14.56,23.4.31,3.22,1.61,5.1,5.45,4.56,3.51-.49,5.67-1.61,5.31-5.57-.15-1.65.01-3.33-.03-4.99-.48-17.2-17.27-26.19-29.56-22.98Zm-20.24-33.02c-5.27,5.99-6.12,9.11-3.4,11.41,2.58,2.18,5.91.64,10.1-5.34-2.12-1.93-4.39-3.99-6.7-6.08Zm26.82,65.37c.52-.43,1.04-.87,1.56-1.3-1.54-3.18-3.08-6.36-4.62-9.53-2.79,2.04-5.58,4.07-8.38,6.11.26.51.52,1.02.79,1.53,3.55,1.07,7.1,2.13,10.65,3.2Zm-27.36-11.42c.54-.18,1.09-.37,1.63-.55-.7-3.59-1.4-7.18-2.1-10.76-2.82,1.47-5.65,2.93-9.51,4.94,4.27,2.73,7.12,4.55,9.98,6.38Zm12.6,6.64c.51-.35,1.01-.69,1.52-1.03-1.05-3.13-2.11-6.25-3.16-9.38-2.71,1.42-5.42,2.84-9.37,4.9,4.67,2.34,7.85,3.92,11.02,5.51Zm-24.03-14.65c.41-.24.81-.48,1.22-.72-.51-3.56-1.01-7.13-1.71-12.07-3.61,2.95-5.94,4.85-8.75,7.14,3.49,2.13,6.37,3.89,9.25,5.65Zm9.87-48.01c-2.27-2.48-3.79-4.44-5.63-6.02-.74-.64-3.01-.89-3.16-.59-.92,1.81-2.15,3.96-1.81,5.72.21,1.1,2.94,2.19,4.65,2.39,1.64.18,3.4-.8,5.96-1.49Zm32.24,14.51c-4.35-.3-7.3-.5-11.72-.8,1.84,3.97,3.1,6.67,4.87,10.49,2.63-3.72,4.3-6.07,6.85-9.68Zm-22.06-4.32c-.34,3.22-.83,5.66-.68,8.07.04.6,2.66,1.83,3.15,1.47,1.91-1.41,3.45-3.33,5.55-5.5-2.93-1.48-4.8-2.42-8.02-4.04Zm34.37,8.17c-.16-.48-.32-.96-.48-1.45-3.14-.65-6.29-1.3-9.43-1.96-.26.32-.52.65-.79.97,1.54,2.15,2.68,5.17,4.77,6.12,1.18.53,3.9-2.34,5.93-3.68Zm-5.24,50.86c-.84-3.21-1.46-5.61-2.08-8.01-.48-.12-.96-.25-1.44-.37-1.38,2.1-2.77,4.2-4.56,6.93,2.96.53,4.98.9,8.09,1.45Zm-59.05-38.97c-3.36,1.72-5.43,2.79-7.09,3.64,1.98,2.44,3.71,4.57,6.28,7.75.29-4.12.5-6.99.81-11.39Zm-9.72,1.98c.86-6.95-.34-8.88-6.07-9.8,2.07,3.34,3.89,6.27,6.07,9.8Zm18.2-42.9c.18-.56.37-1.12.55-1.68-1.51-1.48-3.02-2.96-4.52-4.45-.42.13-.85.27-1.27.4.2,1.67-.14,3.77.75,4.87.74.91,2.94.62,4.49.86Z"/>
      <path class="cls-5" d="m372.33,241.33c6.1-.21,12.23-.15,18.3-.67,19.08-1.65,29.79-22.83,19.46-39.25,1.2-1.09,2.4-2.18,3.6-3.27,9.18,12.56,6.19,31.63-6.32,41.02-9.62,7.22-20.26,9.55-31.99,7.15.23-1.17.45-2.35.7-3.67-1-.35-2.38-.83-3.75-1.31Z"/>
      <path class="cls-4" d="m321.9,120.76c1.74,14.59,9.96,21.92,23.8,24.52-5.66,2.85-12.2.46-18.21-5.27-6.29-6.01-8.6-12.42-5.59-19.25Z"/>
      <path class="cls-5" d="m375.39,246.28c-.36.3-.73.6-1.09.9.36-.3.73-.6,1.09-.9Z"/>
      <path class="cls-3" d="m408.1,106.88c21.25.19,34.94,11.73,34.88,29.42-.06,16.5-14.07,31.17-29.57,30.99-17.31-.21-33.35-15.09-33.19-30.8.17-16.86,12.3-29.75,27.88-29.61Zm.87,27.67c-.05.72-.11,1.44-.16,2.17,1.94.9,3.89,1.8,5.83,2.69.74-2.37,1.47-4.74,2.21-7.12-.43-.27-.85-.54-1.28-.8-2.2,1.02-4.4,2.04-6.59,3.06Z"/>
      <path class="cls-3" d="m325.25,106.74c-.99-15.51,15.56-30.37,27.65-30.19,15.63.23,33.32,15.93,33.36,29.54.05,14.94-15.88,31.62-30.14,31.57-18.61-.06-30.92-12.39-30.88-30.93Zm22.21-7.67c-1.69,4.65,1.56,4.81,4.36,5.8.56-1.69,1.06-3.18,1.76-5.27-2.38-.21-4.25-.37-6.11-.53Z"/>
      <path class="cls-3" d="m369.3,55.26c-1.54-3.68-.25-5.64,2.38-7.18,5.82-3.42,12.15-4.69,18.74-3.83,22.94,3.01,41.8,13.2,54.45,32.97,3.2,5,4.45,11.3,6.16,17.13.38,1.28-1.09,3.1-1.7,4.67-1.54-.79-3.36-1.3-4.53-2.46-1.24-1.24-2.01-3.04-2.7-4.72-11.77-28.28-33.79-38.09-64.7-37.22-2.64.08-5.27.41-8.08.64Z"/>
      <path class="cls-5" d="m357.64,204.59c12.3-3.2,29.09,5.79,29.57,22.99.05,1.66-.12,3.34.03,4.99.36,3.96-1.8,5.08-5.31,5.57-3.84.54-5.14-1.34-5.45-4.56-.98-10.23-4.94-18.53-14.56-23.4-2.05-1.04-3.87-2.53-5.8-3.81.51-.6,1.01-1.19,1.52-1.79Z"/>
      <path class="cls-3" d="m337.4,171.58c2.3,2.09,4.58,4.15,6.7,6.08-4.2,5.98-7.52,7.52-10.1,5.34-2.71-2.3-1.86-5.43,3.4-11.41Z"/>
      <path class="cls-3" d="m364.22,236.95c-3.55-1.07-7.1-2.13-10.65-3.2-.26-.51-.52-1.02-.79-1.53,2.79-2.04,5.58-4.07,8.38-6.11,1.54,3.18,3.08,6.36,4.62,9.53-.52.43-1.04.87-1.56,1.3Z"/>
      <path class="cls-3" d="m336.87,225.53c-2.86-1.82-5.71-3.65-9.98-6.38,3.86-2.01,6.68-3.47,9.51-4.94.7,3.59,1.4,7.18,2.1,10.76-.54.18-1.09.37-1.63.55Z"/>
      <path class="cls-3" d="m349.47,232.17c-3.17-1.59-6.35-3.18-11.02-5.51,3.95-2.07,6.66-3.48,9.37-4.9,1.05,3.13,2.11,6.25,3.16,9.38-.51.34-1.01.69-1.52,1.03Z"/>
      <path class="cls-3" d="m325.44,217.52c-2.88-1.76-5.76-3.52-9.25-5.65,2.81-2.3,5.14-4.2,8.75-7.14.7,4.94,1.2,8.51,1.71,12.07-.41.24-.81.48-1.22.72Z"/>
      <path class="cls-3" d="m335.31,169.51c-2.55.7-4.32,1.68-5.96,1.49-1.7-.19-4.43-1.29-4.65-2.39-.34-1.76.89-3.91,1.81-5.72.15-.3,2.42-.05,3.16.59,1.84,1.59,3.36,3.54,5.62,6.02Z"/>
      <path class="cls-3" d="m367.55,184.02c-2.56,3.62-4.22,5.97-6.85,9.68-1.77-3.81-3.03-6.52-4.87-10.49,4.43.3,7.38.5,11.73.8Z"/>
      <path class="cls-3" d="m345.49,179.71c3.21,1.62,5.08,2.56,8.02,4.04-2.1,2.17-3.64,4.1-5.55,5.5-.48.36-3.11-.87-3.15-1.47-.14-2.41.34-4.85.68-8.07Z"/>
      <path class="cls-3" d="m379.86,187.88c-2.03,1.34-4.75,4.22-5.93,3.68-2.08-.94-3.23-3.96-4.77-6.12.26-.32.52-.65.79-.97,3.14.65,6.29,1.3,9.43,1.96.16.48.32.96.48,1.45Z"/>
      <path class="cls-3" d="m374.63,238.74c-3.11-.56-5.14-.92-8.09-1.45,1.8-2.73,3.18-4.83,4.56-6.93.48.12.96.25,1.44.37.62,2.4,1.25,4.8,2.09,8.01Z"/>
      <path class="cls-3" d="m315.58,199.76c-.31,4.41-.52,7.27-.81,11.39-2.58-3.18-4.31-5.31-6.28-7.75,1.66-.85,3.74-1.92,7.09-3.64Z"/>
      <path class="cls-3" d="m305.86,201.74c-2.19-3.53-4-6.46-6.07-9.8,5.73.92,6.93,2.85,6.07,9.8Z"/>
      <path class="cls-3" d="m324.06,158.85c-1.55-.24-3.75.05-4.49-.86-.9-1.1-.56-3.2-.75-4.87.42-.13.85-.27,1.27-.4,1.51,1.48,3.02,2.96,4.52,4.45-.18.56-.37,1.12-.55,1.68Z"/>
      <path class="cls-4" d="m408.97,134.55c2.2-1.02,4.4-2.04,6.6-3.06.43.27.85.54,1.28.8-.74,2.37-1.47,4.74-2.21,7.12-1.94-.9-3.89-1.8-5.83-2.69.05-.72.11-1.44.16-2.17Z"/>
      <path class="cls-4" d="m347.46,99.07c1.86.16,3.73.32,6.11.53-.7,2.09-1.19,3.58-1.76,5.27-2.79-.99-6.05-1.15-4.36-5.8Z"/>
    </g>
  </g>
</svg>